<?xml version="1.0" encoding="utf-8"?>
<!-- Generator: Adobe Illustrator 22.1.0, SVG Export Plug-In . SVG Version: 6.00 Build 0)  -->
<svg version="1.1" id="Layer_1" xmlns="http://www.w3.org/2000/svg" xmlns:xlink="http://www.w3.org/1999/xlink" x="0px" y="0px"
	 width="2000px" height="2000px" viewBox="0 0 2000 2000" style="enable-background:new 0 0 2000 2000;" xml:space="preserve">
<style type="text/css">
	.st0{fill:#D4F4E7;}
	.st1{fill:#BDEDE3;}
	.st2{fill:#A9E7E0;}
	.st3{fill:#97E1DD;}
	.st4{fill:#F1F2F2;}
	.st5{fill:#FFFFFF;}
	.st6{fill:#1266B2;}
	.st7{fill:#03B4C4;}
	.st8{fill:#F27C7C;}
	.st9{fill:#E6E7E8;}
	.st10{fill:url(#SVGID_1_);}
	.st11{fill:url(#SVGID_2_);}
	.st12{fill:url(#SVGID_3_);}
	.st13{fill:url(#SVGID_4_);}
	.st14{fill:url(#SVGID_5_);}
	.st15{fill:url(#SVGID_6_);}
	.st16{fill:url(#SVGID_7_);}
	.st17{font-family:'ArialMT';}
	.st18{font-size:50.1697px;}
	.st19{letter-spacing:5;}
	.st20{fill:url(#SVGID_8_);}
	.st21{font-size:37.9434px;}
	.st22{letter-spacing:3;}
	.st23{fill:url(#SVGID_9_);}
	.st24{fill:url(#SVGID_10_);}
	.st25{fill:#021A58;}
	.st26{fill:#D8A7A3;}
	.st27{fill:url(#SVGID_11_);}
	.st28{fill:url(#SVGID_12_);}
	.st29{fill:url(#SVGID_13_);}
	.st30{fill:url(#SVGID_14_);}
	.st31{fill:url(#SVGID_15_);}
	.st32{fill:url(#SVGID_16_);}
	.st33{fill:url(#SVGID_17_);}
	.st34{fill:url(#SVGID_18_);}
	.st35{fill:url(#SVGID_19_);}
	.st36{fill:#5FE0DC;}
	.st37{fill:url(#SVGID_20_);}
	.st38{fill:url(#SVGID_21_);}
	.st39{fill:url(#SVGID_22_);}
	.st40{fill:url(#SVGID_23_);}
	.st41{fill:url(#SVGID_24_);}
	.st42{fill:url(#SVGID_25_);}
	.st43{fill:url(#SVGID_26_);}
	.st44{fill:#F7AB00;}
</style>
<g>
	<rect class="st0" width="2000" height="2000"/>
	<g>
		<path class="st1" d="M1776.8,1075.4c4.1-12.3,8.6-24.4,13.5-36.4c22.8-52.4,50.5-102.4,73.4-154.7
			c25.9-59.2,44.5-119.5,48.9-184.3c4.1-60.5-8.3-126.1-42.6-177c-32.1-47.6-77.5-82.6-129.4-106.4c-51.4-23.6-105.7-39.6-158-60.9
			c-26-11.5-50.7-25.1-73.7-41.9c-61-49.1-112.3-113.6-184.7-146.6c-24.2-11.1-48.4-19.8-74.8-23.7c-17.6-2.6-35.1-4.2-52.6-4.2
			c-9.1,0-18.1,0.4-27.3,1.4c-28,3-55.6,7.8-82.7,15.8c-26.1,7.7-51.2,17.8-76.2,28.5c-46.1,19.7-90.4,43.4-136.3,63.5
			c-32.4,13.2-65.7,23.8-100.3,29.4c-19.1,2.1-38.3,2.9-57.5,2.9c-54.1,0-108.2-6.4-162.2-8.5c-8.6-0.3-17.3-0.5-25.9-0.5
			c-22.8,0-45.6,1.2-68.2,4.1c-20.2,2.6-40.3,5.5-60.1,10.5c-19.4,5-37.8,12.2-56.2,20.1c-31.7,13.6-61.5,33.9-85.5,58.8
			c-27.5,28.5-46.1,61.3-60.8,97.7c-8.1,20-13.4,40.8-17.1,61.9c24.9-34.4,59.4-61.6,100.5-75.1c31.1-10.3,61.6-16,94.2-17.7
			c28.9-1.5,57.8-1.4,86.6-2.2c56.1-2.7,111.6-12.2,165.5-28.2c52.8-17.3,103.4-40.8,150.7-70.2c6.8-4.5,13.6-9,20.3-13.7
			c41.3-28.6,81.5-58.9,125.2-83.8c19.2-11,39.3-20.6,60.3-27.7c25.3-8.5,50.6-15.7,77.3-17.4c9.7-0.6,19.5-1,29.2-1
			c14.5,0,28.9,0.9,43.3,3.2c23.7,3.8,47.2,9.7,69.9,17.3c37.6,12.7,73.1,30.5,108.2,48.9c35.6,18.7,70.9,38.1,107.8,54.3
			c35,15.4,71.6,26.5,107.8,38.9c39.6,13.7,79.1,29.8,114,53.3c39.8,26.8,74.1,66.1,90.8,111.4c19.4,52.7,22.5,108.8,14.8,164.2
			c-6.7,48.7-20.9,95.9-32.5,143.5c-7.1,31.7-12.5,63.9-12.5,96.5c1.1,14.6,3.4,29,7.2,43.2c7.4,20.7,17.5,40.3,29,59.1
			C1750.3,1039.9,1763.5,1057.7,1776.8,1075.4z"/>
		<path class="st1" d="M1294.8,1658.4c-17,0-33.9-0.5-50.8-1.4c-0.5,0-1,0-1.5,0c-2.3,0-4.6-0.2-6.8-0.5c-3.4-0.2-6.8-0.8-10-1.7
			c-22.3-3.8-44.4-8.4-66.5-13.2c-48.1-10.5-96-22.1-144.5-31.2c-40.9-7.6-82.4-13.7-124.1-13.7c-1.4,0-2.7,0-4.1,0
			c-36.2,2.3-71.4,10.6-106.5,19.3c0.6,0.2,1.3,0.5,1.9,0.7c24.1,11,47.1,24.4,70.8,36.2c10,5.8,20.7,8.7,32.3,8.7
			c131.1,16.5,263.2,38.6,395.6,38.6c36.5,0,73-1.7,109.5-5.6c84-9.1,173.3-24.7,247.4-67.8c33.5-19.5,63.4-45.9,85.4-78
			c-13.1,7.7-26.6,14.8-40.1,21.4C1562.3,1628.7,1428.5,1658.4,1294.8,1658.4z"/>
		<path class="st1" d="M362.4,1466.9c-64.3-115.3-63.6-251.3-100.2-375.5c-10.7-32.6-23.6-64.2-37.1-95.7
			c-0.7,13.6-1.9,27.2-3.5,40.8c-9.2,63.2-23.7,125.4-32.1,188.8c-7.3,55-6.9,109.1,3.7,163.7c10.5,54.5,34.1,105.5,69.9,147.8
			c38.7,45.7,96.4,74.4,155.1,83.1c23.2,3.5,46.2,5.3,69.3,5.3c12.6,0,25.2-0.5,37.9-1.6c1.5-0.1,3.1-0.3,4.6-0.4
			c-15.6-6-30.7-13.3-45.8-22.2C431.4,1569.9,391.7,1519.6,362.4,1466.9z"/>
		<path class="st1" d="M180.7,524.8c-11.1,15.4-20.4,32.2-27.5,50c-20.3,51-23,108.4-16.2,162.3c7.8,61,29.6,120.4,53,177
			c11.3,27.4,23.3,54.4,35,81.7c1.6-30.3,0.7-60.5-2.9-90.9c-12.5-83.9-37.7-165.3-46.3-249.9c-3.1-30.2-3.6-60.7-0.5-90.9
			C176.8,550.9,178.5,537.8,180.7,524.8z"/>
		<path class="st1" d="M1731,1535.8c-2.6,4.4-5.4,8.8-8.3,13c44-25.7,84.6-57.9,114.7-99c22.3-30.4,36.2-64.8,42.8-101.7
			c7.7-42.9-1-86.3-15.2-126.8c-19-54.5-53.9-100.2-88.3-146c-7.1,21.3-12.8,43.1-16.4,65.3c-9.2,88.9,17.8,177.2,8.7,266.1
			C1764.4,1452.1,1754.4,1496.2,1731,1535.8z"/>
		<path class="st1" d="M690.5,1635.8c30.1-4.7,59.7-12.4,89.4-19.7c-13.2-4.9-26.7-8.7-40.6-11.3c-10.1-1-20.2-1.4-30.3-1.4
			c-23.9,0-47.9,2.4-71.6,5.4c-35.8,5-71.5,11-107.5,14.4c17,6.5,34.7,11.3,53.5,14.5c14.4,2.5,29.2,3.5,44,3.5
			C648.6,1641.1,669.9,1639,690.5,1635.8z"/>
		<path class="st2" d="M1746.9,679.3c7.7-55.4,4.6-111.5-14.8-164.2c-16.7-45.4-51-84.7-90.8-111.4c-34.9-23.5-74.4-39.6-114-53.3
			c-36.1-12.5-72.7-23.6-107.8-38.9c-36.9-16.2-72.2-35.6-107.8-54.3c-35-18.3-70.6-36.2-108.2-48.9c-22.7-7.6-46.3-13.6-69.9-17.3
			c-14.4-2.3-28.8-3.2-43.3-3.2c-9.7,0-19.4,0.4-29.2,1c-26.7,1.7-52,8.9-77.3,17.4c-21,7.1-41,16.7-60.3,27.7
			c-43.7,25-83.9,55.3-125.2,83.8c-6.7,4.6-13.4,9.2-20.3,13.7c-47.2,29.3-97.8,52.8-150.7,70.2c-53.8,16-109.4,25.5-165.5,28.2
			c-28.9,0.7-57.8,0.7-86.6,2.2c-32.6,1.7-63.1,7.4-94.2,17.7c-41.1,13.6-75.6,40.7-100.5,75.1c-2.3,13-3.9,26.1-5.3,39.3
			c-3.1,30.2-2.6,60.7,0.5,90.9c8.6,84.6,33.8,166,46.3,249.9c3.6,30.4,4.4,60.6,2.9,90.9c13.5,31.5,26.4,63.2,37.1,95.7
			c36.6,124.2,35.9,260.2,100.2,375.5c29.4,52.7,69.1,103,121.7,134c15.1,8.9,30.2,16.3,45.8,22.2c36-3.4,71.7-9.4,107.5-14.4
			c23.7-3,47.7-5.4,71.6-5.4c10.1,0,20.2,0.4,30.3,1.4c13.9,2.5,27.4,6.3,40.6,11.3c35.1-8.7,70.3-16.9,106.5-19.3
			c1.4,0,2.7,0,4.1,0c41.7,0,83.2,6.1,124.1,13.7c48.4,9,96.4,20.7,144.5,31.2c22.1,4.8,44.2,9.4,66.5,13.2c3.3,0.9,6.6,1.4,10,1.7
			c2.2,0.3,4.5,0.5,6.8,0.5c0.5,0,1,0,1.5,0c16.9,1,33.9,1.4,50.8,1.4c133.7,0,267.5-29.7,387.8-88.2c13.5-6.6,27-13.7,40.1-21.4
			c2.9-4.2,5.7-8.6,8.3-13c23.3-39.6,33.4-83.7,38.1-129c9.1-89-17.8-177.3-8.7-266.1c3.6-22.2,9.3-44,16.4-65.3
			c-13.3-17.7-26.5-35.5-38.6-53.8c-11.5-18.8-21.6-38.4-29-59.1c-3.7-14.2-6.1-28.6-7.2-43.2c0-32.6,5.4-64.8,12.5-96.5
			C1726.1,775.2,1740.2,728,1746.9,679.3z M1684,1203.6c-1.9,13.2-4.9,26.2-9,38.9c-10.1,31-24.3,61.5-43.6,87.9
			c-11.3,15.5-23.2,30.8-36.7,44.5c-13.9,14-29.6,26-45.4,37.7c-28.8,21.2-61,36.2-94.1,49.3c-28,11.1-57.3,18.8-86.9,24.2
			c-35.6,6.4-71.8,10.5-107.9,11.9c-8.5,0.3-17.1,0.8-25.6,1.2c-8.8,1.2-17.6,2.4-26.3,3.5c-31.1,3.9-62.3,5.6-93.4,5.6
			c-15.3,0-30.7-0.4-46-1.2c-1.6,0-3.2,0-4.7,0c-3.4-0.1-6.7-0.3-9.9-0.8c-15.3-1-30.6-2.4-45.9-4c-50.3-5.4-100.5-13.3-151.2-13.3
			c-3.9,0-7.9,0-11.8,0.1c-40.1,1-79.9,6.3-120,8c-7.8,0.3-15.6,0.5-23.5,0.5c-12.9,0-25.8-0.5-38.7-1.8
			c-23.7-2.4-47.9-5.4-70.5-13.1c-20.1-6.7-40.1-15.3-58.2-26.5c-11.4-7.1-22-15.5-32.5-23.8c-6-4.7-11.7-9.9-17-15.4
			c-9.3-9.7-17.5-20.6-25.3-31.5c-4.3-6-8.1-12.3-11.2-19c-5.6-11.7-11.1-23.9-14.5-36.5c-3.5-12.8-5.1-26.4-6.1-39.6
			c-1-13.8,1.3-27.3,3.2-41c1.1-7.8,2.8-15.5,5.3-23c6.7-20.5,16-40.5,27-59.2c15.1-25.7,33-49.8,46-76.8
			c3.9-10.8,6.8-21.8,8.8-33.1c2-22.3,1.2-44.7-1.3-66.9c-7.2-46-20-91-27.2-137c-4.3-27.4-8.1-55.3-7.6-83.1
			c0.4-23.1,3.4-46.7,8.6-69.2c5.2-22.5,14-44.6,24.7-64.9c4-7.6,8.6-14.8,13.8-21.7c8.5-11.3,17-22.9,27.4-32.6
			c10.3-9.6,21.7-18.4,33.5-25.9c12.8-8.1,27.2-13.8,41.2-19.3c23.1-9,48.7-12.3,73.3-14.2c7.1-0.5,14.2-0.8,21.3-0.8
			c37,0,73.8,6.5,110.4,11.7c17.7,2.2,35.4,3.8,53.2,3.8c7.4,0,14.8-0.3,22.2-0.9c15.4-2.9,30.5-7.4,45.1-13.1
			c46.4-21.1,88.4-50.7,134.5-72.6c26.1-12.4,53.5-24.3,82.1-29.6c17.7-3.3,35-5.1,52.2-5.1c17.5,0,34.9,1.9,52.8,6
			c17.8,4.1,35.1,11.5,51.4,19.4c11.2,5.4,21.7,11.9,31.6,19.4c14.6,11,28.9,22.1,41.6,35.3c12.8,13.4,24.3,28.3,34.9,43.4
			c19.4,27.5,33,58.8,44.8,90.1c10.7,28.4,18.5,57.8,25.4,87.4c12.7,54,22.8,109,43,160.8c10.1,22,22.4,42.6,36.7,62.1
			c22.4,28,46.4,55.1,64.7,86c21.9,37,33.5,77.7,35.7,120.6C1689.3,1165.6,1686.8,1184.5,1684,1203.6z"/>
		<path class="st3" d="M509.4,1090.6c-12.9,26.9-30.9,51-46,76.8c-10.9,18.6-20.3,38.6-27,59.2c-2.4,7.5-4.1,15.2-5.3,23
			c-1.9,13.6-4.2,27.2-3.2,41c1,13.2,2.6,26.8,6.1,39.6c3.4,12.6,8.9,24.8,14.5,36.5c3.2,6.6,7,13,11.2,19
			c7.8,10.9,16,21.8,25.3,31.5c5.3,5.5,11,10.6,17,15.4c10.5,8.3,21.1,16.8,32.5,23.8c18.1,11.2,38.1,19.7,58.2,26.5
			c22.7,7.6,46.9,10.6,70.5,13.1c12.9,1.3,25.8,1.8,38.7,1.8c7.8,0,15.7-0.2,23.5-0.5c40.1-1.7,79.9-7,120-8
			c3.9-0.1,7.9-0.1,11.8-0.1c50.7,0,100.9,7.9,151.2,13.3c15.3,1.7,30.6,3,45.9,4c3.2,0.5,6.5,0.8,9.9,0.8c1.6,0,3.2,0,4.7,0
			c15.3,0.8,30.7,1.2,46,1.2c31.2,0,62.3-1.7,93.4-5.6c8.8-1.1,17.6-2.2,26.3-3.5c8.5-0.5,17.1-0.9,25.6-1.2
			c36.1-1.4,72.3-5.5,107.9-11.9c29.6-5.3,58.9-13.1,86.9-24.2c33.2-13.1,65.3-28,94.1-49.3c15.8-11.7,31.5-23.7,45.4-37.7
			c13.5-13.6,25.4-29,36.7-44.5c19.2-26.4,33.5-56.9,43.6-87.9c4.1-12.7,7.1-25.7,9-38.9c2.8-19.1,5.3-37.9,4.3-57.2
			c-2.2-42.8-13.8-83.6-35.7-120.6c-18.3-30.9-42.4-58-64.7-86c-14.4-19.5-26.7-40-36.7-62.1c-20.3-51.8-30.4-106.8-43-160.8
			c-6.9-29.5-14.7-59-25.4-87.4c-11.8-31.3-25.4-62.6-44.8-90.1c-10.7-15.1-22.1-30-34.9-43.4c-12.7-13.2-27-24.3-41.6-35.3
			c-9.9-7.4-20.5-14-31.6-19.4c-16.3-7.9-33.6-15.3-51.4-19.4c-17.9-4.1-35.4-6-52.8-6c-17.2,0-34.5,1.8-52.2,5.1
			c-28.6,5.3-56,17.2-82.1,29.6c-46.1,21.9-88.1,51.5-134.5,72.6c-14.6,5.7-29.7,10.2-45.1,13.1c-7.4,0.6-14.8,0.9-22.2,0.9
			c-17.8,0-35.5-1.6-53.2-3.8c-36.5-5.2-73.4-11.7-110.4-11.7c-7.1,0-14.2,0.2-21.3,0.8c-24.5,1.9-50.2,5.1-73.3,14.2
			c-14,5.5-28.4,11.2-41.2,19.3c-11.9,7.5-23.2,16.3-33.5,25.9c-10.4,9.7-18.9,21.2-27.4,32.6c-5.1,6.9-9.7,14.1-13.8,21.7
			c-10.7,20.3-19.5,42.4-24.7,64.9c-5.2,22.5-8.2,46.1-8.6,69.2c-0.4,27.8,3.4,55.7,7.6,83.1c7.2,46,20,91,27.2,137
			c2.5,22.2,3.3,44.6,1.3,66.9C516.1,1068.7,513.2,1079.8,509.4,1090.6z"/>
	</g>
	<g>
		<g>
			<path class="st4" d="M1693.5,1061.7c8.1,0,14.7-6.6,14.7-14.7V733c0-8.1-6.6-14.7-14.7-14.7h-244.7c-8.1,0-14.7,6.6-14.7,14.7
				v314c0,8.1,6.6,14.7,14.7,14.7H1693.5z"/>
			<rect x="1451.2" y="759.5" class="st5" width="240" height="286.3"/>
			<ellipse class="st6" cx="1646.1" cy="739.8" rx="5" ry="5"/>
			<ellipse class="st7" cx="1664.1" cy="739.8" rx="5" ry="5"/>
			<ellipse class="st8" cx="1682.1" cy="739.8" rx="5" ry="5"/>
			<rect x="1472.3" y="798.8" class="st9" width="58.8" height="58.8"/>
			<linearGradient id="SVGID_1_" gradientUnits="userSpaceOnUse" x1="1542.3424" y1="828.2491" x2="1601.1487" y2="828.2491">
				<stop  offset="0" style="stop-color:#5FE0DC"/>
				<stop  offset="1" style="stop-color:#03B4C4"/>
			</linearGradient>
			<rect x="1542.3" y="798.8" class="st10" width="58.8" height="58.8"/>
			<rect x="1611.2" y="798.8" class="st9" width="58.8" height="58.8"/>
			<rect x="1472.3" y="873.3" class="st9" width="58.8" height="58.8"/>
			<rect x="1542.3" y="873.3" class="st9" width="58.8" height="58.8"/>
			<linearGradient id="SVGID_2_" gradientUnits="userSpaceOnUse" x1="1611.2297" y1="902.6793" x2="1670.0361" y2="902.6793">
				<stop  offset="0" style="stop-color:#FFDB70"/>
				<stop  offset="1" style="stop-color:#F7AB00"/>
			</linearGradient>
			<rect x="1611.2" y="873.3" class="st11" width="58.8" height="58.8"/>
			<rect x="1472.3" y="947.7" class="st9" width="58.8" height="58.8"/>
			<linearGradient id="SVGID_3_" gradientUnits="userSpaceOnUse" x1="1542.3424" y1="977.1095" x2="1601.1487" y2="977.1095">
				<stop  offset="0" style="stop-color:#1266B2"/>
				<stop  offset="1" style="stop-color:#021A58"/>
			</linearGradient>
			<rect x="1542.3" y="947.7" class="st12" width="58.8" height="58.8"/>
			<rect x="1611.2" y="947.7" class="st9" width="58.8" height="58.8"/>
		</g>
		<g>
			<path class="st4" d="M796.2,807.4c9.1,0,16.5-7.4,16.5-16.5V408.4c0-9.1-7.4-16.5-16.5-16.5H355.7c-9.1,0-16.5,7.4-16.5,16.5
				v382.5c0,9.1,7.4,16.5,16.5,16.5H796.2z"/>
			<rect x="358.9" y="431.1" class="st5" width="434.1" height="351.2"/>
			<ellipse class="st6" cx="716.7" cy="411.4" rx="6.3" ry="6.3"/>
			<ellipse class="st7" cx="739.3" cy="411.4" rx="6.3" ry="6.3"/>
			<ellipse class="st8" cx="762" cy="411.4" rx="6.3" ry="6.3"/>
			<g>
				<g>
					<rect x="376" y="506.5" class="st9" width="185.9" height="5"/>
					<rect x="376" y="522.2" class="st9" width="185.9" height="5"/>
					<rect x="376" y="538" class="st9" width="185.9" height="5"/>
					<rect x="376" y="553.7" class="st9" width="185.9" height="5"/>
					<rect x="376" y="569.5" class="st9" width="185.9" height="5"/>
					<rect x="376" y="585.2" class="st9" width="185.9" height="5"/>
					<rect x="376" y="601" class="st9" width="185.9" height="5"/>
					<rect x="582.5" y="506.5" class="st9" width="185.9" height="5"/>
					<rect x="582.5" y="522.2" class="st9" width="185.9" height="5"/>
					<rect x="582.5" y="538" class="st9" width="185.9" height="5"/>
					<rect x="582.5" y="553.7" class="st9" width="185.9" height="5"/>
					<rect x="582.5" y="569.5" class="st9" width="185.9" height="5"/>
					<rect x="582.5" y="585.2" class="st9" width="185.9" height="5"/>
					<rect x="582.5" y="601" class="st9" width="185.9" height="5"/>
				</g>
				
					<ellipse transform="matrix(0.9871 -0.1602 0.1602 0.9871 -70.555 68.803)" class="st9" cx="391.5" cy="472" rx="15.5" ry="15.5"/>
				
					<ellipse transform="matrix(0.9871 -0.1602 0.1602 0.9871 -69.8488 77.5642)" class="st7" cx="446.2" cy="472" rx="15.5" ry="15.5"/>
				<g>
					<g>
						<rect x="468.9" y="637.1" class="st9" width="17.6" height="17.6"/>
						<rect x="495.1" y="639.2" class="st9" width="236.6" height="5"/>
					</g>
					<rect x="495.1" y="649.7" class="st9" width="264.1" height="5"/>
				</g>
				<g>
					<g>
						<rect x="468.9" y="675.9" class="st9" width="17.6" height="17.6"/>
						<rect x="495.1" y="678" class="st9" width="236.6" height="5"/>
					</g>
					<rect x="495.1" y="688.5" class="st9" width="264.1" height="5"/>
				</g>
				<g>
					<g>
						<rect x="468.9" y="714.7" class="st9" width="17.6" height="17.6"/>
						<rect x="495.1" y="716.8" class="st9" width="236.6" height="5"/>
					</g>
					<rect x="495.1" y="727.2" class="st9" width="264.1" height="5"/>
				</g>
				<rect x="391.5" y="632.3" class="st6" width="54.7" height="104.9"/>
			</g>
		</g>
		<g>
			<linearGradient id="SVGID_4_" gradientUnits="userSpaceOnUse" x1="747.8442" y1="527.2869" x2="975.4995" y2="527.2869">
				<stop  offset="0" style="stop-color:#5FE0DC"/>
				<stop  offset="1" style="stop-color:#03B4C4"/>
			</linearGradient>
			<path class="st13" d="M967.4,576c4.5,0,8.1-3.6,8.1-8.1v-81.2c0-4.5-3.6-8.1-8.1-8.1H756c-4.5,0-8.1,3.6-8.1,8.1v81.2
				c0,4.5,3.6,8.1,8.1,8.1H967.4z"/>
			<g>
				<path class="st5" d="M780.3,544.5c0.7,0.6,1.6,0.5,2.2-0.2l9.6-11.1c5.3,3.6,12.7,2.7,17-2.3c4.7-5.4,4.1-13.6-1.3-18.2
					c-5.4-4.7-13.6-4.1-18.2,1.3c-4.3,5-4.1,12.4,0.2,17.1l-9.6,11.1C779.6,543,779.6,544,780.3,544.5z M791.5,515.9
					c3.7-4.3,10.1-4.7,14.4-1c4.3,3.7,4.7,10.1,1,14.4s-10.1,4.7-14.4,1C788.3,526.6,787.8,520.2,791.5,515.9z"/>
				<path class="st5" d="M836,538c0-1.5-1.2-2.7-2.7-2.7s-2.7,1.2-2.7,2.7s1.2,2.7,2.7,2.7S836,539.5,836,538z"/>
				<path class="st5" d="M851.4,538c0-1.5-1.2-2.7-2.7-2.7s-2.7,1.2-2.7,2.7s1.2,2.7,2.7,2.7S851.4,539.5,851.4,538z"/>
				<path class="st5" d="M866.7,538c0-1.5-1.2-2.7-2.7-2.7s-2.7,1.2-2.7,2.7s1.2,2.7,2.7,2.7S866.7,539.5,866.7,538z"/>
				<path class="st5" d="M882.1,538c0-1.5-1.2-2.7-2.7-2.7s-2.7,1.2-2.7,2.7s1.2,2.7,2.7,2.7S882.1,539.5,882.1,538z"/>
				<path class="st5" d="M897.5,538c0-1.5-1.2-2.7-2.7-2.7s-2.7,1.2-2.7,2.7s1.2,2.7,2.7,2.7S897.5,539.5,897.5,538z"/>
				<path class="st5" d="M912.9,538c0-1.5-1.2-2.7-2.7-2.7s-2.7,1.2-2.7,2.7s1.2,2.7,2.7,2.7S912.9,539.5,912.9,538z"/>
				<path class="st5" d="M928.2,538c0-1.5-1.2-2.7-2.7-2.7s-2.7,1.2-2.7,2.7s1.2,2.7,2.7,2.7S928.2,539.5,928.2,538z"/>
				<path class="st5" d="M943.6,538c0-1.5-1.2-2.7-2.7-2.7s-2.7,1.2-2.7,2.7s1.2,2.7,2.7,2.7S943.6,539.5,943.6,538z"/>
			</g>
		</g>
		<g>
			<linearGradient id="SVGID_5_" gradientUnits="userSpaceOnUse" x1="271.5182" y1="825.6971" x2="406.9577" y2="825.6971">
				<stop  offset="0" style="stop-color:#FFDB70"/>
				<stop  offset="1" style="stop-color:#F7AB00"/>
			</linearGradient>
			<circle class="st14" cx="339.2" cy="825.7" r="67.7"/>
			<g>
				<path class="st5" d="M291,817.5c-1.9,0.4-3.3,2-3.3,4v4.2v4.2c0,1.9,1.4,3.6,3.3,4l10,1.9c0.9,3.5,2.3,6.9,4.1,9.9l-5.7,8.4
					c-1.1,1.6-0.9,3.8,0.5,5.1l3,3l3,3c1.4,1.4,3.5,1.6,5.1,0.5l8.4-5.7c3.1,1.8,6.4,3.2,9.9,4.1l1.9,10c0.4,1.9,2,3.3,4,3.3h4.2
					h4.2c1.9,0,3.6-1.4,4-3.3l1.9-10c3.5-0.9,6.9-2.3,9.9-4.1l8.4,5.7c1.6,1.1,3.8,0.9,5.1-0.5l3-3l3-3c1.4-1.4,1.6-3.5,0.5-5.1
					l-5.7-8.4c1.8-3.1,3.2-6.4,4.1-9.9l10-1.9c1.9-0.4,3.3-2,3.3-4v-4.2v-4.2c0-1.9-1.4-3.6-3.3-4l-10-1.9c-0.9-3.5-2.3-6.9-4.1-9.9
					l5.7-8.4c1.1-1.6,0.9-3.8-0.5-5.1l-3-3l-3-3c-1.4-1.4-3.5-1.6-5.1-0.5l-8.4,5.7c-3.1-1.8-6.4-3.2-9.9-4.1l-1.9-10
					c-0.4-1.9-2-3.3-4-3.3h-4.2h-4.2c-1.9,0-3.6,1.4-4,3.3l-1.9,10c-3.5,0.9-6.9,2.3-9.9,4.1l-8.4-5.7c-1.6-1.1-3.8-0.9-5.1,0.5
					l-3,3l-3,3c-1.4,1.4-1.6,3.5-0.5,5.1l5.7,8.4c-1.8,3.1-3.2,6.4-4.1,9.9L291,817.5z M339.2,800.2c14.1,0,25.5,11.4,25.5,25.5
					c0,14.1-11.4,25.5-25.5,25.5s-25.5-11.4-25.5-25.5C313.7,811.6,325.2,800.2,339.2,800.2z"/>
				<path class="st5" d="M359.5,825.7c0-11.2-9.1-20.3-20.3-20.3c-11.2,0-20.3,9.1-20.3,20.3c0,11.2,9.1,20.3,20.3,20.3
					C350.4,846,359.5,836.9,359.5,825.7z M324.1,825.7c0-8.3,6.8-15.1,15.1-15.1c8.3,0,15.1,6.8,15.1,15.1c0,8.3-6.8,15.1-15.1,15.1
					C330.9,840.8,324.1,834,324.1,825.7z"/>
			</g>
		</g>
		<g>
			<path class="st4" d="M1523.6,666.6c7.1,0,12.9-5.8,12.9-12.9V425.5c0-7.1-5.8-12.9-12.9-12.9h-370.9c-7.1,0-12.9,5.8-12.9,12.9
				v228.3c0,7.1,5.8,12.9,12.9,12.9H1523.6z"/>
			<rect x="1156.6" y="438.2" class="st5" width="363.1" height="213.3"/>
			<ellipse class="st6" cx="1475.5" cy="425.1" rx="5" ry="5"/>
			<ellipse class="st7" cx="1493.5" cy="425.1" rx="5" ry="5"/>
			<ellipse class="st8" cx="1511.5" cy="425.1" rx="5" ry="5"/>
			<rect x="1180.6" y="474.8" class="st8" width="101" height="4.3"/>
			<rect x="1208.6" y="490" class="st9" width="129.5" height="4.3"/>
			<rect x="1208.6" y="501" class="st9" width="124.4" height="4.3"/>
			<rect x="1208.6" y="512" class="st9" width="143.5" height="4.3"/>
			<rect x="1228.6" y="537.4" class="st7" width="101" height="4.3"/>
			<rect x="1246.6" y="549.2" class="st9" width="126.4" height="4.3"/>
			<rect x="1246.6" y="559.2" class="st9" width="133.6" height="4.3"/>
			<rect x="1246.6" y="569.2" class="st9" width="124.9" height="4.3"/>
			<rect x="1246.6" y="579.2" class="st9" width="141.6" height="4.3"/>
			<rect x="1268" y="596.2" class="st6" width="101" height="4.3"/>
			<rect x="1291" y="605.6" class="st9" width="154.4" height="4.3"/>
			<rect x="1291" y="614.9" class="st9" width="180.9" height="4.3"/>
		</g>
		<g>
			<linearGradient id="SVGID_6_" gradientUnits="userSpaceOnUse" x1="1105.5574" y1="379.2011" x2="1248.0232" y2="379.2011">
				<stop  offset="0" style="stop-color:#1266B2"/>
				<stop  offset="1" style="stop-color:#021A58"/>
			</linearGradient>
			<path class="st15" d="M1199.9,464.1c6.2,0,11.2-5,11.2-11.2V305.5c0-6.2-5-11.2-11.2-11.2h-120.1c-6.2,0-11.2,5-11.2,11.2v147.4
				c0,6.2,5,11.2,11.2,11.2H1199.9z"/>
			<circle class="st5" cx="1139.8" cy="349.5" r="29.8"/>
			<rect x="1102.6" y="390.2" class="st5" width="74.3" height="8.7"/>
			<rect x="1086.7" y="412.6" class="st5" width="106.2" height="4.3"/>
			<rect x="1086.7" y="422.6" class="st5" width="106.2" height="4.3"/>
			<rect x="1086.7" y="432.6" class="st5" width="106.2" height="4.3"/>
		</g>
		<g>
			<linearGradient id="SVGID_7_" gradientUnits="userSpaceOnUse" x1="1096.7435" y1="652.4918" x2="1203.0144" y2="652.4918">
				<stop  offset="0" style="stop-color:#5FE0DC"/>
				<stop  offset="1" style="stop-color:#03B4C4"/>
			</linearGradient>
			<circle class="st16" cx="1149.9" cy="652.5" r="53.1"/>
			<text transform="matrix(1 0 0 1 1107.4193 667.394)" class="st5 st17 st18 st19">&lt;/&gt;</text>
		</g>
		<g>
			<linearGradient id="SVGID_8_" gradientUnits="userSpaceOnUse" x1="1417.3455" y1="720.6172" x2="1588.0078" y2="720.6172">
				<stop  offset="0" style="stop-color:#1266B2"/>
				<stop  offset="1" style="stop-color:#021A58"/>
			</linearGradient>
			<path class="st20" d="M1535.1,747.4c4.8,0,8.6-3.9,8.6-8.6v-36.3c0-4.8-3.9-8.6-8.6-8.6h-153.4c-4.8,0-8.6,3.9-8.6,8.6v36.3
				c0,4.8,3.9,8.6,8.6,8.6H1535.1z"/>
			<g>
				<text transform="matrix(1 0 0 1 1411.5597 730.7376)" class="st5 st17 st21 st22">www</text>
			</g>
		</g>
		<path class="st5" d="M1316.5,735.9c0,1.1,0.9,2,2,2s2-0.9,2-2v-12c0-1.1-0.9-2-2-2s-2,0.9-2,2V735.9z"/>
		<path class="st5" d="M1318.5,673.9c-1.1,0-2,0.9-2,2v12c0,1.1,0.9,2,2,2s2-0.9,2-2v-12C1320.5,674.8,1319.6,673.9,1318.5,673.9z"
			/>
		<path class="st5" d="M1316.5,711.9c0,1.1,0.9,2,2,2s2-0.9,2-2v-12c0-1.1-0.9-2-2-2s-2,0.9-2,2V711.9z"/>
		<path class="st5" d="M1319.7,792.7c0,1.1,0.9,2,2,2h12c1.1,0,2-0.9,2-2s-0.9-2-2-2h-12C1320.6,790.7,1319.7,791.6,1319.7,792.7z"
			/>
		<path class="st5" d="M1316.5,759.9c0,1.1,0.9,2,2,2s2-0.9,2-2v-12c0-1.1-0.9-2-2-2s-2,0.9-2,2V759.9z"/>
		<path class="st5" d="M1316.5,783.9c0,1.1,0.9,2,2,2s2-0.9,2-2v-12c0-1.1-0.9-2-2-2s-2,0.9-2,2V783.9z"/>
		<path class="st5" d="M1381.7,794.7c1.1,0,2-0.9,2-2s-0.9-2-2-2h-12c-1.1,0-2,0.9-2,2s0.9,2,2,2H1381.7z"/>
		<path class="st5" d="M1405.7,794.7c1.1,0,2-0.9,2-2s-0.9-2-2-2h-12c-1.1,0-2,0.9-2,2s0.9,2,2,2H1405.7z"/>
		<path class="st5" d="M1357.7,794.7c1.1,0,2-0.9,2-2s-0.9-2-2-2h-12c-1.1,0-2,0.9-2,2s0.9,2,2,2H1357.7z"/>
		<path class="st5" d="M988,721.3c1.1,0,2-0.9,2-2s-0.9-2-2-2h-12c-1.1,0-2,0.9-2,2s0.9,2,2,2H988z"/>
		<path class="st5" d="M1037.6,566.9c1.1,0,2-0.9,2-2v-12c0-1.1-0.9-2-2-2s-2,0.9-2,2v12C1035.6,566,1036.5,566.9,1037.6,566.9z"/>
		<path class="st5" d="M964,721.3c1.1,0,2-0.9,2-2s-0.9-2-2-2h-12c-1.1,0-2,0.9-2,2s0.9,2,2,2H964z"/>
		<path class="st5" d="M1035.6,588.9c0,1.1,0.9,2,2,2s2-0.9,2-2v-12c0-1.1-0.9-2-2-2s-2,0.9-2,2V588.9z"/>
		<path class="st5" d="M1012,721.3c1.1,0,2-0.9,2-2s-0.9-2-2-2h-12c-1.1,0-2,0.9-2,2s0.9,2,2,2H1012z"/>
		<path class="st5" d="M892,721.3c1.1,0,2-0.9,2-2s-0.9-2-2-2h-12c-1.1,0-2,0.9-2,2s0.9,2,2,2H892z"/>
		<path class="st5" d="M940,721.3c1.1,0,2-0.9,2-2s-0.9-2-2-2h-12c-1.1,0-2,0.9-2,2s0.9,2,2,2H940z"/>
		<path class="st5" d="M844,721.3c1.1,0,2-0.9,2-2s-0.9-2-2-2h-12c-1.1,0-2,0.9-2,2s0.9,2,2,2H844z"/>
		<path class="st5" d="M916,721.3c1.1,0,2-0.9,2-2s-0.9-2-2-2h-12c-1.1,0-2,0.9-2,2s0.9,2,2,2H916z"/>
		<path class="st5" d="M868,721.3c1.1,0,2-0.9,2-2s-0.9-2-2-2h-12c-1.1,0-2,0.9-2,2s0.9,2,2,2H868z"/>
		<path class="st5" d="M1053.6,546.9c1.1,0,2-0.9,2-2s-0.9-2-2-2h-12c-1.1,0-2,0.9-2,2s0.9,2,2,2H1053.6z"/>
		<path class="st5" d="M1077.6,546.9c1.1,0,2-0.9,2-2s-0.9-2-2-2h-12c-1.1,0-2,0.9-2,2s0.9,2,2,2H1077.6z"/>
		<path class="st5" d="M1125.6,546.9c1.1,0,2-0.9,2-2s-0.9-2-2-2h-12c-1.1,0-2,0.9-2,2s0.9,2,2,2H1125.6z"/>
		<path class="st5" d="M1101.6,546.9c1.1,0,2-0.9,2-2s-0.9-2-2-2h-12c-1.1,0-2,0.9-2,2s0.9,2,2,2H1101.6z"/>
		<path class="st5" d="M1022,719.3c0,1.1,0.9,2,2,2h12c1.1,0,2-0.9,2-2s-0.9-2-2-2h-12C1022.9,717.3,1022,718.2,1022,719.3z"/>
		<path class="st5" d="M1035.6,684.9c0,1.1,0.9,2,2,2s2-0.9,2-2v-12c0-1.1-0.9-2-2-2s-2,0.9-2,2V684.9z"/>
		<path class="st5" d="M1035.6,660.9c0,1.1,0.9,2,2,2s2-0.9,2-2v-12c0-1.1-0.9-2-2-2s-2,0.9-2,2V660.9z"/>
		<path class="st5" d="M1035.6,636.9c0,1.1,0.9,2,2,2s2-0.9,2-2v-12c0-1.1-0.9-2-2-2s-2,0.9-2,2V636.9z"/>
		<path class="st5" d="M1035.6,612.9c0,1.1,0.9,2,2,2s2-0.9,2-2v-12c0-1.1-0.9-2-2-2s-2,0.9-2,2V612.9z"/>
		<path class="st5" d="M1035.6,708.9c0,1.1,0.9,2,2,2s2-0.9,2-2v-12c0-1.1-0.9-2-2-2s-2,0.9-2,2V708.9z"/>
		<path class="st5" d="M696.9,351.5c1.1,0,2-0.9,2-2s-0.9-2-2-2h-12c-1.1,0-2,0.9-2,2s0.9,2,2,2H696.9z"/>
		<path class="st5" d="M744.9,351.5c1.1,0,2-0.9,2-2s-0.9-2-2-2h-12c-1.1,0-2,0.9-2,2s0.9,2,2,2H744.9z"/>
		<path class="st5" d="M816.9,351.5c1.1,0,2-0.9,2-2s-0.9-2-2-2h-12c-1.1,0-2,0.9-2,2s0.9,2,2,2H816.9z"/>
		<path class="st5" d="M768.9,351.5c1.1,0,2-0.9,2-2s-0.9-2-2-2h-12c-1.1,0-2,0.9-2,2s0.9,2,2,2H768.9z"/>
		<path class="st5" d="M792.9,351.5c1.1,0,2-0.9,2-2s-0.9-2-2-2h-12c-1.1,0-2,0.9-2,2s0.9,2,2,2H792.9z"/>
		<path class="st5" d="M616.6,379.2c0,1.1,0.9,2,2,2s2-0.9,2-2v-12c0-1.1-0.9-2-2-2s-2,0.9-2,2V379.2z"/>
		<path class="st5" d="M618.6,357.2c1.1,0,2-0.9,2-2v-3.8h4.3c1.1,0,2-0.9,2-2s-0.9-2-2-2h-6.3c-1.1,0-2,0.9-2,2v5.8
			C616.6,356.3,617.5,357.2,618.6,357.2z"/>
		<path class="st5" d="M672.9,351.5c1.1,0,2-0.9,2-2s-0.9-2-2-2h-12c-1.1,0-2,0.9-2,2s0.9,2,2,2H672.9z"/>
		<path class="st5" d="M648.9,351.5c1.1,0,2-0.9,2-2s-0.9-2-2-2h-12c-1.1,0-2,0.9-2,2s0.9,2,2,2H648.9z"/>
		<path class="st5" d="M720.9,351.5c1.1,0,2-0.9,2-2s-0.9-2-2-2h-12c-1.1,0-2,0.9-2,2s0.9,2,2,2H720.9z"/>
		<path class="st5" d="M984.9,351.5c1.1,0,2-0.9,2-2s-0.9-2-2-2h-12c-1.1,0-2,0.9-2,2s0.9,2,2,2H984.9z"/>
		<path class="st5" d="M1008.9,351.5c1.1,0,2-0.9,2-2s-0.9-2-2-2h-12c-1.1,0-2,0.9-2,2s0.9,2,2,2H1008.9z"/>
		<path class="st5" d="M960.9,351.5c1.1,0,2-0.9,2-2s-0.9-2-2-2h-12c-1.1,0-2,0.9-2,2s0.9,2,2,2H960.9z"/>
		<path class="st5" d="M1032.9,351.5c1.1,0,2-0.9,2-2s-0.9-2-2-2h-12c-1.1,0-2,0.9-2,2s0.9,2,2,2H1032.9z"/>
		<path class="st5" d="M1056.9,351.5c1.1,0,2-0.9,2-2s-0.9-2-2-2h-12c-1.1,0-2,0.9-2,2s0.9,2,2,2H1056.9z"/>
		<path class="st5" d="M936.9,351.5c1.1,0,2-0.9,2-2s-0.9-2-2-2h-12c-1.1,0-2,0.9-2,2s0.9,2,2,2H936.9z"/>
		<path class="st5" d="M840.9,351.5c1.1,0,2-0.9,2-2s-0.9-2-2-2h-12c-1.1,0-2,0.9-2,2s0.9,2,2,2H840.9z"/>
		<path class="st5" d="M888.9,351.5c1.1,0,2-0.9,2-2s-0.9-2-2-2h-12c-1.1,0-2,0.9-2,2s0.9,2,2,2H888.9z"/>
		<path class="st5" d="M864.9,351.5c1.1,0,2-0.9,2-2s-0.9-2-2-2h-12c-1.1,0-2,0.9-2,2s0.9,2,2,2H864.9z"/>
		<path class="st5" d="M912.9,351.5c1.1,0,2-0.9,2-2s-0.9-2-2-2h-12c-1.1,0-2,0.9-2,2s0.9,2,2,2H912.9z"/>
		<path class="st5" d="M939.3,409.4h-12c-1.1,0-2,0.9-2,2s0.9,2,2,2h12c1.1,0,2-0.9,2-2S940.4,409.4,939.3,409.4z"/>
		<path class="st5" d="M940.1,444.6c-1.1,0-2,0.9-2,2v12c0,1.1,0.9,2,2,2s2-0.9,2-2v-12C942.1,445.5,941.2,444.6,940.1,444.6z"/>
		<path class="st5" d="M901.3,411.4c0,1.1,0.9,2,2,2h12c1.1,0,2-0.9,2-2s-0.9-2-2-2h-12C902.2,409.4,901.3,410.3,901.3,411.4z"/>
		<path class="st5" d="M890.2,410.6c0,1.1,0.9,2,2,2s2-0.9,2-2v-12c0-1.1-0.9-2-2-2s-2,0.9-2,2V410.6z"/>
		<path class="st5" d="M913.4,369.8h-12c-1.1,0-2,0.9-2,2s0.9,2,2,2h12c1.1,0,2-0.9,2-2S914.5,369.8,913.4,369.8z"/>
		<path class="st5" d="M892.2,388.6c1.1,0,2-0.9,2-2v-12c0-1.1-0.9-2-2-2s-2,0.9-2,2v12C890.2,387.7,891,388.6,892.2,388.6z"/>
		<path class="st5" d="M942.1,422.6c0-1.1-0.9-2-2-2s-2,0.9-2,2v12c0,1.1,0.9,2,2,2s2-0.9,2-2V422.6z"/>
		<path class="st5" d="M937.4,369.8h-12c-1.1,0-2,0.9-2,2s0.9,2,2,2h12c1.1,0,2-0.9,2-2S938.5,369.8,937.4,369.8z"/>
		<path class="st5" d="M1057.4,373.8c1.1,0,2-0.9,2-2s-0.9-2-2-2h-12c-1.1,0-2,0.9-2,2s0.9,2,2,2H1057.4z"/>
		<path class="st5" d="M1009.4,373.8c1.1,0,2-0.9,2-2s-0.9-2-2-2h-12c-1.1,0-2,0.9-2,2s0.9,2,2,2H1009.4z"/>
		<path class="st5" d="M1033.4,373.8c1.1,0,2-0.9,2-2s-0.9-2-2-2h-12c-1.1,0-2,0.9-2,2s0.9,2,2,2H1033.4z"/>
		<path class="st5" d="M985.4,373.8c1.1,0,2-0.9,2-2s-0.9-2-2-2h-12c-1.1,0-2,0.9-2,2s0.9,2,2,2H985.4z"/>
		<path class="st5" d="M961.4,373.8c1.1,0,2-0.9,2-2s-0.9-2-2-2h-12c-1.1,0-2,0.9-2,2s0.9,2,2,2H961.4z"/>
		<path class="st5" d="M1182,794.7c1.1,0,2-0.9,2-2s-0.9-2-2-2h-12c-1.1,0-2,0.9-2,2s0.9,2,2,2H1182z"/>
		<path class="st5" d="M1147.9,792.7c0,1.1,0.9,2,2,2h8.1c1.1,0,2-0.9,2-2s-0.9-2-2-2h-6.1v-1.9c0-1.1-0.9-2-2-2s-2,0.9-2,2V792.7z"
			/>
		<path class="st5" d="M1147.9,752.8c0,1.1,0.9,2,2,2s2-0.9,2-2v-12c0-1.1-0.9-2-2-2s-2,0.9-2,2V752.8z"/>
		<path class="st5" d="M1147.9,776.8c0,1.1,0.9,2,2,2s2-0.9,2-2v-12c0-1.1-0.9-2-2-2s-2,0.9-2,2V776.8z"/>
		<path class="st5" d="M1230,794.7c1.1,0,2-0.9,2-2s-0.9-2-2-2h-12c-1.1,0-2,0.9-2,2s0.9,2,2,2H1230z"/>
		<path class="st5" d="M1149.9,730.8c1.1,0,2-0.9,2-2v-12c0-1.1-0.9-2-2-2s-2,0.9-2,2v12C1147.9,729.9,1148.8,730.8,1149.9,730.8z"
			/>
		<path class="st5" d="M1206,794.7c1.1,0,2-0.9,2-2s-0.9-2-2-2h-12c-1.1,0-2,0.9-2,2s0.9,2,2,2H1206z"/>
		<path class="st5" d="M1279.6,784.3c0,1.1,0.9,2,2,2s2-0.9,2-2v-12c0-1.1-0.9-2-2-2s-2,0.9-2,2V784.3z"/>
		<path class="st5" d="M1279.6,760.3c0,1.1,0.9,2,2,2s2-0.9,2-2v-12c0-1.1-0.9-2-2-2s-2,0.9-2,2V760.3z"/>
		<path class="st5" d="M1278,790.7h-12c-1.1,0-2,0.9-2,2s0.9,2,2,2h12c1.1,0,2-0.9,2-2S1279.1,790.7,1278,790.7z"/>
		<path class="st5" d="M1254,794.7c1.1,0,2-0.9,2-2s-0.9-2-2-2h-12c-1.1,0-2,0.9-2,2s0.9,2,2,2H1254z"/>
		<path class="st5" d="M1279.6,712.3c0,1.1,0.9,2,2,2s2-0.9,2-2v-12c0-1.1-0.9-2-2-2s-2,0.9-2,2V712.3z"/>
		<path class="st5" d="M1281.6,690.3c1.1,0,2-0.9,2-2v-12c0-1.1-0.9-2-2-2s-2,0.9-2,2v12C1279.6,689.4,1280.5,690.3,1281.6,690.3z"
			/>
		<path class="st5" d="M1279.6,736.3c0,1.1,0.9,2,2,2s2-0.9,2-2v-12c0-1.1-0.9-2-2-2s-2,0.9-2,2V736.3z"/>
		<path class="st5" d="M822.2,959.9c1.1,0,2-0.9,2-2s-0.9-2-2-2h-12c-1.1,0-2,0.9-2,2s0.9,2,2,2H822.2z"/>
		<path class="st5" d="M798.2,959.9c1.1,0,2-0.9,2-2s-0.9-2-2-2h-12c-1.1,0-2,0.9-2,2s0.9,2,2,2H798.2z"/>
		<path class="st5" d="M750.2,959.9c1.1,0,2-0.9,2-2s-0.9-2-2-2h-12c-1.1,0-2,0.9-2,2s0.9,2,2,2H750.2z"/>
		<path class="st5" d="M774.2,959.9c1.1,0,2-0.9,2-2s-0.9-2-2-2h-12c-1.1,0-2,0.9-2,2s0.9,2,2,2H774.2z"/>
		<path class="st5" d="M846.2,959.9c1.1,0,2-0.9,2-2s-0.9-2-2-2h-12c-1.1,0-2,0.9-2,2s0.9,2,2,2H846.2z"/>
		<path class="st5" d="M942.2,959.9c1.1,0,2-0.9,2-2s-0.9-2-2-2h-12c-1.1,0-2,0.9-2,2s0.9,2,2,2H942.2z"/>
		<path class="st5" d="M726.2,959.9c1.1,0,2-0.9,2-2s-0.9-2-2-2h-12c-1.1,0-2,0.9-2,2s0.9,2,2,2H726.2z"/>
		<path class="st5" d="M966.2,959.9c1.1,0,2-0.9,2-2s-0.9-2-2-2h-12c-1.1,0-2,0.9-2,2s0.9,2,2,2H966.2z"/>
		<path class="st5" d="M918.2,959.9c1.1,0,2-0.9,2-2s-0.9-2-2-2h-12c-1.1,0-2,0.9-2,2s0.9,2,2,2H918.2z"/>
		<path class="st5" d="M870.2,959.9c1.1,0,2-0.9,2-2s-0.9-2-2-2h-12c-1.1,0-2,0.9-2,2s0.9,2,2,2H870.2z"/>
		<path class="st5" d="M990.2,959.9c1.1,0,2-0.9,2-2s-0.9-2-2-2h-12c-1.1,0-2,0.9-2,2s0.9,2,2,2H990.2z"/>
		<path class="st5" d="M894.2,959.9c1.1,0,2-0.9,2-2s-0.9-2-2-2h-12c-1.1,0-2,0.9-2,2s0.9,2,2,2H894.2z"/>
		<path class="st5" d="M702.2,959.9c1.1,0,2-0.9,2-2s-0.9-2-2-2h-12c-1.1,0-2,0.9-2,2s0.9,2,2,2H702.2z"/>
		<path class="st5" d="M580.5,909.7c0,1.1,0.9,2,2,2s2-0.9,2-2v-12c0-1.1-0.9-2-2-2s-2,0.9-2,2V909.7z"/>
		<path class="st5" d="M580.5,957.7c0,1.1,0.9,2,2,2s2-0.9,2-2v-12c0-1.1-0.9-2-2-2s-2,0.9-2,2V957.7z"/>
		<path class="st5" d="M580.5,861.7c0,1.1,0.9,2,2,2s2-0.9,2-2v-12c0-1.1-0.9-2-2-2s-2,0.9-2,2V861.7z"/>
		<path class="st5" d="M582.5,839.7c1.1,0,2-0.9,2-2v-12c0-1.1-0.9-2-2-2s-2,0.9-2,2v12C580.5,838.8,581.4,839.7,582.5,839.7z"/>
		<path class="st5" d="M580.5,885.7c0,1.1,0.9,2,2,2s2-0.9,2-2v-12c0-1.1-0.9-2-2-2s-2,0.9-2,2V885.7z"/>
		<path class="st5" d="M678.2,959.9c1.1,0,2-0.9,2-2s-0.9-2-2-2h-12c-1.1,0-2,0.9-2,2s0.9,2,2,2H678.2z"/>
		<path class="st5" d="M654.2,959.9c1.1,0,2-0.9,2-2s-0.9-2-2-2h-12c-1.1,0-2,0.9-2,2s0.9,2,2,2H654.2z"/>
		<path class="st5" d="M606.2,959.9c1.1,0,2-0.9,2-2s-0.9-2-2-2h-12c-1.1,0-2,0.9-2,2s0.9,2,2,2H606.2z"/>
		<path class="st5" d="M630.2,959.9c1.1,0,2-0.9,2-2s-0.9-2-2-2h-12c-1.1,0-2,0.9-2,2s0.9,2,2,2H630.2z"/>
		<path class="st5" d="M580.5,933.7c0,1.1,0.9,2,2,2s2-0.9,2-2v-12c0-1.1-0.9-2-2-2s-2,0.9-2,2V933.7z"/>
		<path class="st5" d="M1257.1,842.8c1.1,0,2-0.9,2-2s-0.9-2-2-2h-12c-1.1,0-2,0.9-2,2s0.9,2,2,2H1257.1z"/>
		<path class="st5" d="M1234.6,952.3c0,1.1,0.9,2,2,2s2-0.9,2-2v-12c0-1.1-0.9-2-2-2s-2,0.9-2,2V952.3z"/>
		<path class="st5" d="M1281.1,842.8c1.1,0,2-0.9,2-2s-0.9-2-2-2h-12c-1.1,0-2,0.9-2,2s0.9,2,2,2H1281.1z"/>
		<path class="st5" d="M1014.2,959.9c1.1,0,2-0.9,2-2s-0.9-2-2-2h-12c-1.1,0-2,0.9-2,2s0.9,2,2,2H1014.2z"/>
		<path class="st5" d="M1236.6,858.3c1.1,0,2-0.9,2-2v-12c0-1.1-0.9-2-2-2s-2,0.9-2,2v12C1234.6,857.4,1235.5,858.3,1236.6,858.3z"
			/>
		<path class="st5" d="M1234.6,928.3c0,1.1,0.9,2,2,2s2-0.9,2-2v-12c0-1.1-0.9-2-2-2s-2,0.9-2,2V928.3z"/>
		<path class="st5" d="M1377.1,842.8c1.1,0,2-0.9,2-2s-0.9-2-2-2h-12c-1.1,0-2,0.9-2,2s0.9,2,2,2H1377.1z"/>
		<path class="st5" d="M1401.1,842.8c1.1,0,2-0.9,2-2s-0.9-2-2-2h-12c-1.1,0-2,0.9-2,2s0.9,2,2,2H1401.1z"/>
		<path class="st5" d="M1353.1,842.8c1.1,0,2-0.9,2-2s-0.9-2-2-2h-12c-1.1,0-2,0.9-2,2s0.9,2,2,2H1353.1z"/>
		<path class="st5" d="M1329.1,842.8c1.1,0,2-0.9,2-2s-0.9-2-2-2h-12c-1.1,0-2,0.9-2,2s0.9,2,2,2H1329.1z"/>
		<path class="st5" d="M1305.1,842.8c1.1,0,2-0.9,2-2s-0.9-2-2-2h-12c-1.1,0-2,0.9-2,2s0.9,2,2,2H1305.1z"/>
		<path class="st5" d="M1234.6,904.3c0,1.1,0.9,2,2,2s2-0.9,2-2v-12c0-1.1-0.9-2-2-2s-2,0.9-2,2V904.3z"/>
		<path class="st5" d="M1110.2,959.9c1.1,0,2-0.9,2-2s-0.9-2-2-2h-12c-1.1,0-2,0.9-2,2s0.9,2,2,2H1110.2z"/>
		<path class="st5" d="M1086.2,959.9c1.1,0,2-0.9,2-2s-0.9-2-2-2h-12c-1.1,0-2,0.9-2,2s0.9,2,2,2H1086.2z"/>
		<path class="st5" d="M1062.2,959.9c1.1,0,2-0.9,2-2s-0.9-2-2-2h-12c-1.1,0-2,0.9-2,2s0.9,2,2,2H1062.2z"/>
		<path class="st5" d="M1038.2,959.9c1.1,0,2-0.9,2-2s-0.9-2-2-2h-12c-1.1,0-2,0.9-2,2s0.9,2,2,2H1038.2z"/>
		<path class="st5" d="M1234.6,880.3c0,1.1,0.9,2,2,2s2-0.9,2-2v-12c0-1.1-0.9-2-2-2s-2,0.9-2,2V880.3z"/>
		<path class="st5" d="M1134.2,959.9c1.1,0,2-0.9,2-2s-0.9-2-2-2h-12c-1.1,0-2,0.9-2,2s0.9,2,2,2H1134.2z"/>
		<path class="st5" d="M1158.2,959.9c1.1,0,2-0.9,2-2s-0.9-2-2-2h-12c-1.1,0-2,0.9-2,2s0.9,2,2,2H1158.2z"/>
		<path class="st5" d="M1206.2,959.9c1.1,0,2-0.9,2-2s-0.9-2-2-2h-12c-1.1,0-2,0.9-2,2s0.9,2,2,2H1206.2z"/>
		<path class="st5" d="M1230.2,959.9c1.1,0,2-0.9,2-2s-0.9-2-2-2h-12c-1.1,0-2,0.9-2,2s0.9,2,2,2H1230.2z"/>
		<path class="st5" d="M1182.2,959.9c1.1,0,2-0.9,2-2s-0.9-2-2-2h-12c-1.1,0-2,0.9-2,2s0.9,2,2,2H1182.2z"/>
	</g>
	<g>
		<linearGradient id="SVGID_9_" gradientUnits="userSpaceOnUse" x1="1174.799" y1="1716.8116" x2="1178.8934" y2="1376.8456">
			<stop  offset="0" style="stop-color:#1266B2"/>
			<stop  offset="1" style="stop-color:#021A58"/>
		</linearGradient>
		<path class="st23" d="M1145.2,1241.7v466.2c0,47.2-38.3,85.5-85.5,85.5h-11.8c-3.8,0-6.9,3.1-6.9,6.9v44.2c0,3.8,3.1,6.9,6.9,6.9
			h97.4h56.6h97.4c3.8,0,6.9-3.1,6.9-6.9v-44.2c0-3.8-3.1-6.9-6.9-6.9h-11.8c-47.2,0-85.5-38.3-85.5-85.5v-466.2H1145.2z"/>
		<linearGradient id="SVGID_10_" gradientUnits="userSpaceOnUse" x1="919.6411" y1="893.7947" x2="840.5224" y2="833.1812">
			<stop  offset="0" style="stop-color:#1266B2"/>
			<stop  offset="1" style="stop-color:#021A58"/>
		</linearGradient>
		<path class="st24" d="M871.6,742.4c-1.1-2.1-3.1-3.7-5.9-4c-16.8-1.6-28,12.3-33.8,26.3c-6.6,15.9-13.5,31-21.9,46
			c-15.4,27.5-34.1,63.1-18.4,94.5c6.3,12.5,18.5,22.5,32.8,23.5c14.3,1,27-6.7,32.9-19.6c3.2-7,5.5-12.6,12.8-16.2
			c4-1.9,8.2-3.2,12.4-4.7c5.2,1.2,10.2,3.4,15.7,2.9c12.1-1,19.8-12.7,21.3-23.8c0.9-6.6,0-13.5-2.4-19.7
			c-2.7-6.7-7.7-11.8-11.4-17.8c-3.2-5.1-4.6-10.9-5.8-16.7c0.7-4.2,0.9-8.4-0.1-12.6c-2.1-9.4-8.2-16.9-14.1-24.1
			c-6-7.3-13.1-15.7-9.6-25.8C877.4,746.5,874.9,743.4,871.6,742.4z M905.5,851.6c-2.6-7.5-8.5-14.5-9-22.5
			c-0.1-1.6,0.1-3.2,0.4-4.8c0.9,3,2,5.8,3.7,8.5c4.1,6.7,9.6,12.1,12,19.7c2.5,8,1.9,17.3-2.6,24.5c-5.1,8.2-11.5,8.5-18.4,7.3
			C903.7,877.6,910.2,865.4,905.5,851.6z"/>
		<path class="st25" d="M890.4,772.1c21.2-36.4,8.9-83.3-27.9-104.1c-15.4-8.7-29.2,15-13.8,23.6c23.9,13.5,32,42.9,18.1,66.7
			C857.9,773.5,881.5,787.3,890.4,772.1z"/>
		<path class="st26" d="M1054.2,1155.9c17.8,6.2,16.3,8.2,35.6,5.3s29.8,17.3,29.8,17.3l39.9-35.1c0,0-35.6-14.4-51.9-21.1
			c-16.3-6.7-43.2,11.5-51.9,10.6s-150.4-29.8-160-29.8s-58-178.3-58-178.3l-17.4,145.1c0,0,21.6,55.3,38.9,78.3
			S1036.4,1149.6,1054.2,1155.9z"/>
		<g>
			<linearGradient id="SVGID_11_" gradientUnits="userSpaceOnUse" x1="952.9447" y1="1068.9908" x2="865.734" y2="1043.0438">
				<stop  offset="0" style="stop-color:#FFFFFF"/>
				<stop  offset="1" style="stop-color:#D4F4E7"/>
			</linearGradient>
			<path class="st27" d="M895.6,1102.9c-9.6,0-58-178.3-58-178.3l-17.4,145.1c0,0,21.6,55.3,38.9,78.3c5.7,7.7,27.2,10.4,53.9,10.8
				c-1.8-19.3,7.7-37.9,16.4-50.4C911.6,1105.2,898.3,1102.9,895.6,1102.9z"/>
		</g>
		<linearGradient id="SVGID_12_" gradientUnits="userSpaceOnUse" x1="863.5075" y1="1627.85" x2="848.5424" y2="1509.2827">
			<stop  offset="0" style="stop-color:#1266B2"/>
			<stop  offset="1" style="stop-color:#021A58"/>
		</linearGradient>
		<path class="st28" d="M890.7,1851.6h19.1c8.4,0,14.7-7.6,13.3-15.8l-72.8-416.5h-46.5l73.6,421.2
			C878.5,1846.8,884.1,1851.6,890.7,1851.6z"/>
		<linearGradient id="SVGID_13_" gradientUnits="userSpaceOnUse" x1="750.654" y1="1221.5908" x2="576.4245" y2="1151.5212">
			<stop  offset="0" style="stop-color:#5FE0DC"/>
			<stop  offset="1" style="stop-color:#03B4C4"/>
		</linearGradient>
		<polygon class="st29" points="800.4,1395.5 779.1,1304.3 737.7,1090.7 705.3,997.2 604.8,997.2 549.3,1033 549.3,1254.7 
			578.2,1341.4 659,1390.9 		"/>
		<path class="st26" d="M992.1,1289.9c-34.9-20.5-194.3-76-194.3-76l-9.3,63.5l97.1,37.5c0,0,81.7,13.5,36.5,103.8
			s-9.6,222-21.1,262.4c-11.5,40.4-40.4,38.4-23.1,67.3s-3.8,38.4,25,77.8c28.8,39.4,59.6,27.9,41.3,0
			c-18.3-27.9-17.3-79.8-16.3-124.9S1000.1,1294.6,992.1,1289.9z"/>
		<linearGradient id="SVGID_14_" gradientUnits="userSpaceOnUse" x1="806.4117" y1="1630.3065" x2="851.1067" y2="1491.4408">
			<stop  offset="0" style="stop-color:#FFDB70"/>
			<stop  offset="1" style="stop-color:#F7AB00"/>
		</linearGradient>
		<path class="st30" d="M928.4,1694.4c8.4-68.2,114.1-374.8,65.6-420.8c-29.9-28.3-196.2-59.7-196.2-59.7l-9.3,63.5l97.1,37.5
			c0,0,81.7,13.5,36.5,103.8c-43.5,86.9-12.2,212.2-20,257.4C909.7,1683.6,919.1,1691.2,928.4,1694.4z"/>
		<path class="st5" d="M944.2,1826.2c-2.8-4.3-5.2-9.2-7.2-14.6c0,0,0,0,0,0c-32,0.1-35.1-50.6-37.9-75.1
			c-1.7-14.6-6.8-24.4-10.6-29.8c-11.7,16.1-23.1,20.9-10.6,41.6c17.3,28.8-3.8,38.4,25,77.8C931.7,1865.6,962.4,1854,944.2,1826.2z
			"/>
		<linearGradient id="SVGID_15_" gradientUnits="userSpaceOnUse" x1="860.1786" y1="1778.4575" x2="819.8279" y2="777.5381">
			<stop  offset="0" style="stop-color:#D8A7A3"/>
			<stop  offset="1" style="stop-color:#C6716E"/>
		</linearGradient>
		<path class="st31" d="M635.7,1350.9c32.4,44,257.3,30.3,257.3,30.3s5,99,53.1,194.1s40.6,155,37.7,159.8
			c-2.9,4.8-38.9,36-20.2,53.3c18.7,17.3,36.3,57.2,56.9,63.4c20.7,6.2,71.1,3.8,63.4-7.2s-61-21.4-63.9-127.1
			c-2.9-105.7-35.6-386.3-54.8-410.3c-19.2-24-173-12.5-168.2-83.6s4.8-122,23.1-130.7c18.3-8.6,51.9-11.5,41.3-57.7
			c-10.6-46.1-5.2-107.6-37.1-122.4c-17.7-8.2-18.7-49.6-9.1-63.1c9.6-13.5-58.6-27.9-58.6-27.9s8.6,62-17.3,67.8
			c-25.9,5.8-61.3,5-77.8,21.6c-16.6,16.6-35.8,52.6-33,124s21.7,120.9,9.5,169.2S603.3,1307,635.7,1350.9z"/>
		<linearGradient id="SVGID_16_" gradientUnits="userSpaceOnUse" x1="859.2418" y1="821.6456" x2="770.0367" y2="697.7436">
			<stop  offset="0" style="stop-color:#D8A7A3"/>
			<stop  offset="1" style="stop-color:#C6716E"/>
		</linearGradient>
		<path class="st32" d="M839.5,865.1c20.9,1.1,29.5-23.9,35.5-55.9l6.2-38.3c1.3-8.3,2.6-16.6,4.2-24.6c10.3-54-34.5-79.9-34.5-79.9
			c-121.6-8.6-121.3,79.2-114,127.6C744,842.3,811.9,863.7,839.5,865.1z"/>
		<linearGradient id="SVGID_17_" gradientUnits="userSpaceOnUse" x1="1080.729" y1="1523.4197" x2="586.2331" y2="1376.2969">
			<stop  offset="0" style="stop-color:#FFDB70"/>
			<stop  offset="1" style="stop-color:#F7AB00"/>
		</linearGradient>
		<path class="st33" d="M640.2,1194.9c-0.6,3.2-1.2,6.4-2,9.6c-12.3,48.3-34.9,102.5-2.5,146.4c32.4,44,257.3,30.3,257.3,30.3
			s5,99,53.1,194.1c4.8,9.5,9.1,18.7,12.8,27.5c5.8,25.8,8.6,52.1,8.2,78.6c-0.2,11.3-5.6,31.4,6,38.9c5.7,3.7,13.7,3.5,20.3,3.5
			c8.7,0.1,17.4-0.9,25.9-2.5c2.1-0.4,3.8-2.8,3.7-4.9c-2.4-43-6.5-86-12.3-128.7c-11.8-120.5-31.9-263.8-45.4-280.6
			c-19.2-24-69.8-15.4-163.4-80.3c-3.9-2.7-4.2-12.7-3.9-17.3C754.8,1217.9,675.1,1202.5,640.2,1194.9z"/>
		<path class="st5" d="M1020.6,1851.9c20.7,6.2,71.1,3.8,63.4-7.2c-3.3-4.7-14.7-9.2-27-20.9h0c-32.6,12-48.6-19.2-62.5-51.8
			c-7.4-17.2-12.7-26-16.1-30.5c-10.2,11.2-29.5,33.5-14.7,47.1C982.4,1805.7,999.9,1845.6,1020.6,1851.9z"/>
		<linearGradient id="SVGID_18_" gradientUnits="userSpaceOnUse" x1="776.5399" y1="996.1534" x2="673.5166" y2="1148.6265">
			<stop  offset="0" style="stop-color:#FFFFFF"/>
			<stop  offset="1" style="stop-color:#D4F4E7"/>
		</linearGradient>
		<path class="st34" d="M628.7,1035.3c1.1,26.3,4.3,49.6,7.3,71c-0.6,17.8-1.2,35.7-1.8,53.5c-0.2,7.2-0.5,14.4-0.7,21.6
			c-0.2,6-1.4,13.1,2.9,18.1c2.9,3.4,7.5,4.3,11.7,5.3c7.7,1.8,15.3,3.5,23,5.2c27.3,6.2,55.7,14,83.7,7c6.6-1.7,13.1-4.3,20-4.8
			c6.6-0.5,12.6,2.5,19.2,2.2c1.4-0.1,2.7-0.3,3.9-0.6c0,0.8-0.1,1.5-0.1,2.3c0-0.8,0.1-1.5,0.1-2.3c8.3-2.2,13.9-10.1,15.1-18.7
			c1-7.6-1.3-14.9-3.3-22.2c-2.2-8.1-3.9-16.4-4.7-24.7c-0.6-5.5-0.8-11-0.8-16.4c2.9-21,7.5-34.7,16.2-38.8
			c18.3-8.6,51.9-11.5,41.3-57.7c-10.4-45.3-5.4-105.5-35.5-121.6c-0.1-0.9-0.3-1.8-0.6-2.8c0,0,0-0.1,0-0.1c2.5-4,3.1-8.7,1.4-13.5
			c-1.1-3-5.5-2.6-5.7,0.8c-1.5-0.3-3.1-0.6-4.6-0.9c0.6-3.3-3.3-4.9-5.3-2.2c-1.7,2.4-5,4.4-8.1,2.5c-0.6-0.4-0.5-2-1.2-2.4
			c-1.2-0.7-2.1-1.6-3.7-1.6c-1.3,0-4.3,2.2-5.8,4.4c-0.7-1.5-2-2.9-3.8-3.7c-4.2-1.9-7.1,0.5-10.1,3.1c-3.1,2.9-1.9,1.6-2.8-1.7
			c-0.4-1.5-1-2.8-2.3-3.7c-1.5-1-3.1-1-4.8-0.7c-1.2,0.3-2,1.2-3,1.5c-0.5,0.4-1.1,0.7-1.6,1.1c-3.9-1-5.6-3.4-4.9-7.2
			c-0.2-2.7-3.9-4.1-5.4-1.5c-0.6,2.2-2.1,2.9-4.7,2c0-0.8-0.1-1.5-0.2-2.2c-0.5-0.9-0.6-2.1-1.3-3c-1.4-1.7-3.5-2.3-5.5-2
			c-5.5,0.8-6.6,5.9-6.3,10.5c-25.5,4.9-58.3,5.1-74,20.8C645.1,927.9,625.8,963.9,628.7,1035.3z"/>
		<path class="st26" d="M1046.5,1194.5c3.6-2.9-32.4-36.8-40.4-42.5c-7.9-5.8-31.7-9.4-71.4-7.2c-39.6,2.2-191-13-200.7-13
			s-12.7-93-15.5-160s-40.9-70.3-40.9-70.3c-17.6,1.3-42.4,39.3-45.2,72.8c-2.9,33.5,39.3,183.7,67.7,214.2
			c23.5,25.4,223.2-25,246-13.7c22.8,11.3,37-4.8,41.1,8.2c4.1,13,12.7,21.1,16.3,21.5c3.6,0.4-9.4-32.1-9.4-32.1
			s7.4,11.1,14.2,19.7c6.7,8.6,16.6,14.7,18.3,11.5c1.7-3.1-22.1-38.9-22.1-38.9S1042.9,1197.4,1046.5,1194.5z"/>
		<linearGradient id="SVGID_19_" gradientUnits="userSpaceOnUse" x1="1173.5258" y1="1239.8721" x2="1173.5259" y2="1181.5989">
			<stop  offset="0" style="stop-color:#1266B2"/>
			<stop  offset="1" style="stop-color:#021A58"/>
		</linearGradient>
		<path class="st35" d="M1501.5,1241.7c8.4,0,15.3-6.8,15.3-15.3v-13.5c0-8.4-6.8-15.3-15.3-15.3H845.6c-8.4,0-15.3,6.8-15.3,15.3
			v13.5c0,8.4,6.8,15.3,15.3,15.3H1501.5z"/>
		<path class="st36" d="M611.3,1010h17.3c0.2-16.8,2.8-29.6,2.8-29.6h-16c-89.1,0-105.3,36.9-105.3,83.1l21.6,253.8
			c0,56.3,45.6,101.9,101.9,101.9h264l-4.6-38l-193.3-14.5c-29.7-56-72.9-72.3-102.2-76.5c-18.6-2.6-32.3-18.8-32.3-37.6l-14.1-196
			C551.1,1031.1,578.2,1007,611.3,1010z"/>
		<linearGradient id="SVGID_20_" gradientUnits="userSpaceOnUse" x1="643.7775" y1="1640.996" x2="655.178" y2="1522.033">
			<stop  offset="0" style="stop-color:#1266B2"/>
			<stop  offset="1" style="stop-color:#021A58"/>
		</linearGradient>
		<path class="st37" d="M617.9,1851.6c6.6,0,12.2-4.7,13.3-11.2l73.6-421.2h-46.5l-72.8,416.5c-1.4,8.3,4.9,15.8,13.3,15.8H617.9z"
			/>
		<path class="st5" d="M1313.3,1198c7.8,0,14.2-4.4,14.2-9.7v-6H928c-2.3,0-4.2,1.9-4.2,4.2v7.3c0,2.3,1.9,4.2,4.2,4.2H1313.3z"/>
		<path class="st5" d="M1387.4,992.3c1.8-5.7-2.5-11.6-8.5-11.6l-238.3-0.3c-10.2,0-19.3,6.7-22.2,16.6l-54.4,185.7h263.2
			L1387.4,992.3z"/>
		<linearGradient id="SVGID_21_" gradientUnits="userSpaceOnUse" x1="1214.9878" y1="1088.7628" x2="1245.2561" y2="1088.7628">
			<stop  offset="0" style="stop-color:#1266B2"/>
			<stop  offset="1" style="stop-color:#021A58"/>
		</linearGradient>
		<path class="st38" d="M1244.4,1089.2c2.8-8.2-1.4-15-9.3-15.3c-7.9-0.3-16.5,6.2-19.3,14.4s1.4,15,9.3,15.3
			C1233,1103.8,1241.6,1097.4,1244.4,1089.2z"/>
		<path class="st5" d="M734.1,1131.8c-9.7,0-12.7-93-15.5-160s-40.9-70.3-40.9-70.3c-17.6,1.3-42.4,39.3-45.2,72.8
			c-2.9,33.5,39.3,183.7,67.7,214.2c11.2,12.1,62.5,7,115.5-0.5c-5.8-21.9-3.9-38.4-0.4-49.6
			C774.4,1135.2,738.7,1131.8,734.1,1131.8z"/>
		<linearGradient id="SVGID_22_" gradientUnits="userSpaceOnUse" x1="723.0533" y1="832.262" x2="790.4822" y2="703.0558">
			<stop  offset="0" style="stop-color:#1266B2"/>
			<stop  offset="1" style="stop-color:#021A58"/>
		</linearGradient>
		<path class="st39" d="M656.4,847.4c4.3,13.5,16.9,17.7,28.6,15.1c1.7,0.6,3.4,1.2,5.1,1.9c5.8,2.4,4.2,6.9,3.4,12.1
			c-0.6,3.9-0.8,7.7,0.5,11.5c6,17.6,27.6,13.7,40.6,8.4c0.1,0,0.2-0.1,0.3-0.1c13.2,4.7,28.2-1.8,32.6-15.8
			c2.7-8.8,0.8-17.9-0.7-26.7c-1.1-6.7-1.1-12.2,0.3-17.4c2.5-1,4.9-2,7.2-2.9c9.9-4,20.2-9.2,25.8-18.7c11.2-18.9-4.4-35.1-13-52.2
			c-0.6-3.8-0.5-7.6,1.6-11.1c2.9-4.7,8.2-7.4,13.2-9.2c0.5-0.2,1.1-0.3,1.6-0.5c7,0.2,14.2,1.4,20.3,1.2c12-0.3,24.2-3.7,33.8-11.1
			c17.7-13.6,23.4-38.6,9-56.7c-1.3-1.6-3.2-1-4.1,0.3c-6.4-8.6-16.2-14.2-27-17.4c-29.8-12.2-64.1-14.2-91.8,4.9
			c-5.7,3.9-10.7,8.5-15,13.6c-11.9,4.6-20.8,15-25.3,27.1c-3.3,9-4.2,18.7-3.7,28.2c0.4,7,1.7,13.9,1.5,20.7
			c-8.1,6.7-18.4,11.5-21.4,22.5c-2.9,10.6,3.2,20.3,4.6,30.1C676.5,820.1,649.4,825.5,656.4,847.4z M833.5,733.7
			c17.6-7,33.5-21.6,34.8-40.9c0.2-0.4,0.4-0.8,0.5-1.2c4.8,19.8-13.2,39.8-33.3,44.4c-3.9,0.9-8.1,1.1-12.4,1.1
			C826.6,736,830.1,735,833.5,733.7z M774.1,822.6c5.5-7.6,11.1-14.7,14-23.8c2.1-6.6,2.5-13.3,1.9-19.9c7.6,13.2,12.6,28.4-1,39.9
			c-5.3,4.5-12.2,7.6-19.2,10.6C771,827.2,772.4,825,774.1,822.6z M706.5,715c1.9-10.5,6.9-20.3,14.6-26.9c-3,5.5-5.2,11.4-6.5,17.7
			c-2,9.6-2.2,19.8-3,29.7c-0.3,4.1-1.8,8-4.2,11.3C706.8,736.2,704.6,725.3,706.5,715z M682.6,818c-5.7,11.2-16,23.8-8.2,36.9
			c0.7,1.1,1.4,2,2.2,2.8c-3.1-0.4-6.2-1.5-8.9-3.7c-9-7.2-7.9-18.1-0.3-25.8c5-5,11.4-8.9,16.5-13.7
			C683.7,815.7,683.2,816.9,682.6,818z"/>
		<g>
			<g>
				<linearGradient id="SVGID_23_" gradientUnits="userSpaceOnUse" x1="1418.5676" y1="893.6597" x2="1391.5751" y2="1008.7183">
					<stop  offset="0" style="stop-color:#FFDB70"/>
					<stop  offset="1" style="stop-color:#F7AB00"/>
				</linearGradient>
				<path class="st40" d="M1372.4,1061.8c6.6,21.8,18.7,41.4,30.6,60.5c2.5,3.9,8.7,0.3,6.2-3.6c-0.2-0.3-0.4-0.6-0.6-0.9
					c0.2-0.7,0.1-1.6-0.4-2.4c-10.6-19.3-24.6-46.8-6.4-66.3c7.1-7.6,16.8-12,24.9-18.2c7.4-5.6,13.5-12.8,18.3-20.7
					c21.6-36.5,10.9-81.3-13.6-113.4c-15-19.6-34.6-34.9-55.2-48.1c-2.6-1.6-6.3,1.1-5.3,4.1c8.3,24.2,16.9,49.2,17.4,75.1
					c0.5,24.6-8.8,46.8-15.3,70.1C1367.1,1019.2,1365.9,1040.4,1372.4,1061.8z"/>
				<path class="st5" d="M1392.1,1080c0.5,1.8,3.3,1,2.8-0.8c-5.3-18.3,4.7-34.7,13.8-49.8c7.4-12.3,13.4-24.9,16.6-38.9
					c6.2-26.7,3.3-54.8-8.1-79.6c-0.8-1.7-3.3-0.2-2.5,1.5c12.7,27.8,14.4,59.8,4.6,88.8C1410.7,1026.7,1383.6,1050.9,1392.1,1080z"
					/>
			</g>
			<g>
				<linearGradient id="SVGID_24_" gradientUnits="userSpaceOnUse" x1="1526.1315" y1="977.8926" x2="1421.6412" y2="1033.54">
					<stop  offset="0" style="stop-color:#FFDB70"/>
					<stop  offset="1" style="stop-color:#F7AB00"/>
				</linearGradient>
				<path class="st41" d="M1461.8,995.3c-7.1,7.2-16.1,12-24.3,17.8c-35,24.8-32,68.3-16,103.6c0.3,0.7,0.7,1.1,1.2,1.4
					c0.2,0.6,0.4,1.2,0.7,1.9c1.7,4.3,8.2,1.3,6.6-3c-9.9-25.7,23.9-37,42.1-41.5c17.8-4.5,34.3-10.3,45.9-25.3
					c21.2-27.3,18.4-65.1-0.3-92.8c-11.7-17.3-28.7-30.4-47.2-39.8c-3.4-1.7-6,3-4.1,5.7c10.4,13.9,13.3,32.4,8.6,49.1
					C1472.5,980.8,1468.1,989,1461.8,995.3z"/>
				<path class="st5" d="M1485.4,1034.5c-11.8,10.5-28.4,13.3-43,18.1c-12.6,4.2-24.8,10.1-32.2,21.6c-7.8,12.1-9.1,27.5-3.9,40.8
					c0.7,1.7,3.5,1,2.8-0.8c-6.4-16.4-2.3-36,11.5-47.4c12.2-10.2,28.7-12.9,43.4-17.9c12.4-4.2,24.1-10.3,31.3-21.8
					c9.6-15.3,9.3-34,8.5-51.4c-0.1-1.8-3-1.9-2.9,0C1501.9,996,1502,1019.7,1485.4,1034.5z"/>
			</g>
			<g>
				<linearGradient id="SVGID_25_" gradientUnits="userSpaceOnUse" x1="1327.0955" y1="950.4105" x2="1392.694" y2="1058.3385">
					<stop  offset="0" style="stop-color:#FFDB70"/>
					<stop  offset="1" style="stop-color:#F7AB00"/>
				</linearGradient>
				<path class="st42" d="M1400.1,993.8c-7.6-7.9-16-15-23.4-23c-7.9-8.6-14.4-18.3-19.6-28.8c-10.6-21.1-16.3-44.4-21.8-67.2
					c-0.6-2.5-4.2-3.6-6-1.6c-27.6,30.9-50,74-30.1,115c4,8.3,9.9,15.8,17.2,21.5c8.4,6.5,18.5,9.6,27.9,14.5
					c26.2,13.6,18,40.7,19.8,64.9c0.8,11,4.1,21.9,12.7,29.3c7.2,6.2,16.9,9.1,26,5.4c3.2-1.3,2.9-5.5,0.8-6.8
					c9.6-20.6,18.9-41.8,19.8-64.8C1424.4,1029.4,1415.8,1010.1,1400.1,993.8z"/>
				<path class="st5" d="M1324.2,925.1c-12.7,37.3,29.4,61.6,47.3,87.7c20.8,30.4,26.2,69.9,14.9,104.8c-0.6,1.8,2.2,2.5,2.8,0.8
					c10.2-31.5,7.1-66.4-8.3-95.7c-8.2-15.6-20.2-27.4-32.3-40c-14.5-15-29.1-34.9-21.6-56.8
					C1327.6,924.1,1324.8,923.4,1324.2,925.1z"/>
			</g>
			<linearGradient id="SVGID_26_" gradientUnits="userSpaceOnUse" x1="1400.6722" y1="1102.5323" x2="1400.6722" y2="1187.4097">
				<stop  offset="0" style="stop-color:#5FE0DC"/>
				<stop  offset="1" style="stop-color:#03B4C4"/>
			</linearGradient>
			<path class="st43" d="M1375.4,1197.6h25.3h25.3c3.7,0,6.8-2.8,7.2-6.4l9.9-93.2c0.5-4.3-2.9-8-7.2-8h-35.2h-35.2
				c-4.3,0-7.6,3.7-7.2,8l9.9,93.2C1368.6,1194.9,1371.7,1197.6,1375.4,1197.6z"/>
		</g>
	</g>
	<rect y="1851.6" class="st44" width="2000" height="148.4"/>
</g>
</svg>
